<?xml version="1.0" encoding="UTF-8"?>
<svg xmlns="http://www.w3.org/2000/svg" viewBox="0 0 800 800" width="800" height="800">
  <defs>
    <linearGradient id="grad" x1="0%" y1="0%" x2="100%" y2="100%">
      <stop offset="0%" style="stop-color:#0066b3;stop-opacity:1" />
      <stop offset="100%" style="stop-color:#d90c8b;stop-opacity:1" />
    </linearGradient>
    <filter id="drop-shadow" x="-20%" y="-20%" width="140%" height="140%">
      <feGaussianBlur in="SourceAlpha" stdDeviation="15" />
      <feOffset dx="5" dy="5" result="offsetblur" />
      <feComponentTransfer>
        <feFuncA type="linear" slope="0.2" />
      </feComponentTransfer>
      <feMerge>
        <feMergeNode />
        <feMergeNode in="SourceGraphic" />
      </feMerge>
    </filter>
    <filter id="inner-glow">
      <feFlood flood-color="#ffffff" result="color" />
      <feComposite in="color" in2="SourceAlpha" operator="out" result="outline" />
      <feGaussianBlur in="outline" stdDeviation="5" result="blur" />
      <feComposite in="blur" in2="SourceAlpha" operator="atop" result="glowAlpha" />
      <feComponentTransfer in="glowAlpha" result="glow">
        <feFuncA type="linear" slope="1" intercept="0" />
      </feComponentTransfer>
      <feComposite in="glow" in2="SourceGraphic" operator="over" />
    </filter>
  </defs>
  <path d="M399.93,22.39c-1.64,5.44-1.64,18.04,3.01,29.26c4.65,11.22,15.87,23.66,23.97,29.94
      c8.09,6.28,13.09,6.28,16.73,7.87c3.65,1.59,5.87,4.76,9.87,7.94c4.01,3.17,9.8,6.34,11.23,10.34
      c1.43,4,0.79,8.76-0.79,11.22c-1.59,2.46-4.12,2.46-7.58,3.17c-3.46,0.71-7.87,2.12-8.91,5.44
      c-1.06,3.33,1.27,8.58,5.46,12.88c4.17,4.29,10.17,7.62,12.7,11.45c2.54,3.83,1.59,8.17-0.14,11.6
      c-1.74,3.43-4.28,5.94-3.39,9.6c0.9,3.65,5.23,8.44,6.34,12.3c1.11,3.87-0.95,6.82-2.38,9.41
      c-1.43,2.6-2.22,4.84-0.48,7.94c1.74,3.09,5.01,7.03,5.33,11.45c0.32,4.41-2.22,9.28-5.33,13.41
      c-3.12,4.12-6.82,7.5-6.98,10.88c-0.16,3.38,3.22,6.76,6.67,10.45c3.46,3.7,6.98,7.7,8.25,12.07
      c1.27,4.36,0.32,9.09-1.27,13.09c-1.59,4-3.81,7.3-2.54,10.24c1.27,2.95,5.97,5.55,10.3,10.4
      c4.33,4.85,8.28,11.93,7.63,18.19c-0.64,6.25-5.87,11.69-9.17,15.07c-3.3,3.38-4.65,4.72-2.22,7.3
      c2.43,2.58,8.65,6.4,11.93,14.21c3.28,7.82,3.62,19.63-0.64,27.55c-4.25,7.92-13.09,11.96-14.74,14.75
      c-1.64,2.78-3.3,5.55-4.96,8.33c-1.64,2.78-3.3,5.55-1.24,9.06c2.06,3.51,7.82,7.76,6.44,12.64
      c-1.38,4.88-9.88,10.39-17.6,11.56c-7.71,1.17-14.63-2.01-18.7-0.97c-4.07,1.03-5.29,6.26-7.74,13.95
      c-2.45,7.7-6.14,17.87-13.74,23.14c-7.61,5.26-19.12,5.63-27.13,2.45c-8.01-3.17-12.53-9.88-17.76-10.62
      c-5.24-0.74-11.19,4.5-17.08,7.45c-5.89,2.95-11.72,3.62-18.58-0.24c-6.86-3.85-14.76-12.25-17.9-21.11
      c-3.14-8.86-1.53-18.18-2.7-22.45c-1.17-4.28-5.13-3.5-11.18-6.73c-6.05-3.22-14.21-10.44-17.6-15.14
      c-3.4-4.71-2.03-6.89-0.67-9.08c1.35-2.19,2.71-4.4,1.51-8.42c-1.2-4.03-5.01-9.85-7.44-13.46
      c-2.43-3.61-3.48-5.01-7.23-5.98c-3.77-0.97-10.23-1.5-13.77-6.17c-3.53-4.66-4.13-13.46-2.33-19.91
      c1.8-6.45,6.01-10.57,6.76-14.69c0.75-4.12-1.95-8.25-2.63-12.38c-0.68-4.12,0.68-8.25,4.05-10.65
      c3.38-2.4,8.78-3.08,11.33-6.31c2.55-3.24,2.25-9.04,0.68-13.31c-1.58-4.28-4.43-7.04-4.35-10.95
      c0.07-3.9,3.08-8.93,7.56-11.85c4.48-2.93,10.43-3.75,12.91-7.42c2.48-3.68,1.5-10.2-0.95-14.99
      c-2.45-4.79-6.38-7.87-5.89-12.44c0.49-4.58,5.41-10.65,6.69-15.01c1.28-4.35-1.1-7.01-2.78-9.66
      c-1.65-2.67-2.63-5.33-1.17-8.01c1.43-2.67,5.26-5.33,6.94-8.01c1.65-2.67,1.17-5.33-2.19-9.68
      c-3.36-4.33-9.6-10.35-9.08-14.99c0.52-4.65,7.81-7.94,10.95-11.22c3.16-3.31,2.19-6.61,2.04-11.38
      c-0.15-4.8-1.47-11.08,2.03-14.54c3.5-3.48,11.82-4.11,16.72-7.05c4.91-2.95,6.38-8.19,9.49-11.6
      c3.09-3.39,7.8-4.95,10.5-6.59c2.69-1.65,3.39-3.39,5.03-8.18c1.65-4.8,4.29-12.63,9.05-17.56
      c4.8-4.95,11.7-7,17.47-8.34c5.8-1.34,10.51-2.03,12.38-5.49c1.87-3.46,0.9-9.69,2.7-15.01c1.8-5.33,6.38-9.76,13.46-12.14
      c7.06-2.38,16.64-2.7,24.46-0.76c7.8,1.94,13.83,6.16,19.12,8.63c5.26,2.44,9.83,3.17,13.31,6.01
      C405.05,19.76,406.56,25.56,399.93,22.39z" 
      fill="none" 
      stroke="url(#grad)" 
      stroke-width="12" 
      filter="url(#drop-shadow) url(#inner-glow)" 
      style="fill:url(#grad)" />
</svg> 